<svg width="38" height="38" viewBox="0 0 38 38" fill="none" xmlns="http://www.w3.org/2000/svg">
<g clip-path="url(#clip0_1228_225)">
<path d="M38 19C38 8.50668 29.4933 0 19 0C8.50668 0 0 8.50668 0 19C0 27.9102 6.13472 35.3871 14.4104 37.4406V24.8064H10.4926V19H14.4104V16.4981C14.4104 10.0312 17.3371 7.0338 23.6862 7.0338C24.89 7.0338 26.9671 7.27016 27.8168 7.50576V12.7688C27.3684 12.7216 26.5894 12.6981 25.6219 12.6981C22.5066 12.6981 21.3028 13.8784 21.3028 16.9465V19H27.509L26.4427 24.8064H21.3028V37.8609C30.7108 36.7247 38.0008 28.7143 38.0008 19H38Z" fill="#0866FF"/>
<path d="M26.4423 24.8063L27.5086 18.9999H21.3024V16.9464C21.3024 13.8783 22.5063 12.698 25.6215 12.698C26.589 12.698 27.368 12.7215 27.8164 12.7687V7.50565C26.9667 7.26929 24.8896 7.03369 23.6858 7.03369C17.3367 7.03369 14.41 10.0311 14.41 16.498V18.9999H10.4922V24.8063H14.41V37.4405C15.8798 37.8053 17.4173 37.9999 18.9996 37.9999C19.7786 37.9999 20.547 37.952 21.3017 37.8608V24.8063H26.4415H26.4423Z" fill="white"/>
</g>
<defs>
<clipPath id="clip0_1228_225">
<rect width="38" height="38" fill="white"/>
</clipPath>
</defs>
</svg>
