<svg width="48" height="48" viewBox="0 0 48 48" fill="none" xmlns="http://www.w3.org/2000/svg">
<path d="M42 37C42 39.8 39.8 42 37 42H11C8.2 42 6 39.8 6 37V11C6 8.2 8.2 6 11 6H37C39.8 6 42 8.2 42 11V37Z" fill="#FF9800"/>
<path d="M26.9 30.4C28.4 30.1 29.8 29.5 31 28.7C32 28.1 32.3 26.8 31.7 25.8C31.1 24.8 29.8 24.5 28.8 25.1C25.9 26.9 22.1 26.9 19.2 25.1C18.2 24.5 16.9 24.8 16.3 25.8C15.7 26.8 16 28.1 17 28.7C18.3 29.5 19.7 30.1 21.1 30.4L17.1 34.4C16.3 35.2 16.3 36.5 17.1 37.4C17.5 37.8 18 38 18.6 38C19.1 38 19.7 37.8 20.1 37.4L24 33.5L27.9 37.4C28.7 38.2 30 38.2 30.9 37.4C31.7 36.6 31.7 35.3 30.9 34.4L26.9 30.4ZM24 10C20.1 10 17 13.1 17 17C17 20.9 20.1 24 24 24C27.9 24 31 20.9 31 17C31 13.1 27.9 10 24 10ZM24 20C22.3 20 21 18.7 21 17C21 15.3 22.3 14 24 14C25.7 14 27 15.3 27 17C27 18.7 25.7 20 24 20Z" fill="white"/>
</svg>
