<svg width="38" height="38" viewBox="0 0 38 38" fill="none" xmlns="http://www.w3.org/2000/svg">
<g clip-path="url(#clip0_1228_220)">
<path d="M19 38C29.4934 38 38 29.4934 38 19C38 8.50659 29.4934 0 19 0C8.50659 0 0 8.50659 0 19C0 29.4934 8.50659 38 19 38Z" fill="url(#paint0_linear_1228_220)"/>
<path fill-rule="evenodd" clip-rule="evenodd" d="M8.60012 18.7994C14.139 16.3862 17.8325 14.7953 19.6805 14.0266C24.957 11.8319 26.0534 11.4507 26.768 11.4381C26.9252 11.4354 27.2766 11.4743 27.5043 11.659C27.6965 11.815 27.7494 12.0257 27.7747 12.1736C27.8 12.3214 27.8315 12.6583 27.8065 12.9215C27.5205 15.9259 26.2833 23.2166 25.6539 26.5815C25.3875 28.0054 24.8631 28.4828 24.3554 28.5295C23.252 28.631 22.4142 27.8003 21.3455 27.0998C19.6733 26.0036 18.7286 25.3212 17.1053 24.2516C15.2295 23.0154 16.4455 22.336 17.5146 21.2256C17.7944 20.935 22.6558 16.5131 22.7499 16.112C22.7617 16.0618 22.7726 15.8748 22.6615 15.7761C22.5504 15.6773 22.3864 15.7111 22.2681 15.738C22.1004 15.776 19.429 17.5417 14.2538 21.0351C13.4955 21.5558 12.8087 21.8095 12.1933 21.7962C11.5149 21.7815 10.21 21.4126 9.23986 21.0973C8.04998 20.7105 7.10429 20.506 7.18664 19.8491C7.22953 19.507 7.70069 19.1571 8.60012 18.7994Z" fill="white"/>
</g>
<defs>
<linearGradient id="paint0_linear_1228_220" x1="19" y1="0" x2="19" y2="37.7182" gradientUnits="userSpaceOnUse">
<stop stop-color="#2AABEE"/>
<stop offset="1" stop-color="#229ED9"/>
</linearGradient>
<clipPath id="clip0_1228_220">
<rect width="38" height="38" fill="white"/>
</clipPath>
</defs>
</svg>
