<svg width="38" height="38" viewBox="0 0 38 38" fill="none" xmlns="http://www.w3.org/2000/svg">
<g clip-path="url(#clip0_1228_217)">
<path d="M0 18.24C0 9.64155 0 5.34237 2.67119 2.67119C5.34237 0 9.64155 0 18.24 0H19.76C28.3584 0 32.6576 0 35.3288 2.67119C38 5.34237 38 9.64155 38 18.24V19.76C38 28.3584 38 32.6576 35.3288 35.3288C32.6576 38 28.3584 38 19.76 38H18.24C9.64155 38 5.34237 38 2.67119 35.3288C0 32.6576 0 28.3584 0 19.76V18.24Z" fill="#0077FF"/>
<path d="M20.2187 27.3759C11.5579 27.3759 6.61794 21.4383 6.41211 11.5583H10.7504C10.8929 18.81 14.0912 21.8817 16.6245 22.515V11.5583H20.7097V17.8125C23.2114 17.5433 25.8394 14.6933 26.726 11.5583H30.8111C30.1303 15.4217 27.2803 18.2717 25.2536 19.4434C27.2803 20.3934 30.5263 22.8792 31.7613 27.3759H27.2645C26.2986 24.3675 23.8922 22.04 20.7097 21.7233V27.3759H20.2187Z" fill="white"/>
</g>
<defs>
<clipPath id="clip0_1228_217">
<rect width="38" height="38" fill="white"/>
</clipPath>
</defs>
</svg>
